# xmcd CD database file
#
# Track frame offsets:
#	150
#	25685
#	45465
#	68599
#	93648
#	120760
#	165068
#	201603
#	226573
#	239876
#	278733
#	305327
#
# Disc length: 4191 seconds
#
# Revision: 1
# Processed by: cddbd v1.5.2PL0 Copyright (c) Steve Scherf et al.
# Submitted via: CDex 1.51
#
DISCID=8f105d0c
DTITLE=SONNY HESS - RAE GORDON - TIME (LIVE 2008)
DYEAR=2008
DGENRE=Blues
TTITLE0=IF YOU WANT ME TO STAY
TTITLE1=BUILT FOR COMFORT
TTITLE2=PUT YOUR MONEY WHERE YOUR MOUTH IS
TTITLE3=ANGEL FROM MONTGOMERY
TTITLE4=WALKING THE DOG
TTITLE5=LIKE THE WAY I DO
TTITLE6=STORMY MONDAY
TTITLE7=TIME
TTITLE8=BYE BYE BABY
TTITLE9=PEA VINE BLUES
TTITLE10=BABY IT'S YOU
TTITLE11=I JUST WANT TO MAKE LOVE TO YOU
EXTD=YEAR: 2008
EXTT0=
EXTT1=
EXTT2=
EXTT3=
EXTT4=
EXTT5=
EXTT6=
EXTT7=
EXTT8=
EXTT9=
EXTT10=
EXTT11=
PLAYORDER=
